<svg width="603" height="332" viewBox="0 0 603 332" fill="none" xmlns="http://www.w3.org/2000/svg">
<path d="M522 1.5H430V134.5H481V96C483.5 99 490 107 496 115C503.5 125 513 134.5 519.5 134.5H599L597.5 90C579.5 90.1667 541.8 90.4 535 90C528.2 89.6 527.167 86.8333 527.5 85.5C531.667 83.8333 540.7 80 543.5 78C547 75.5 562 64.5 561.5 38C561.1 16.8 535 4.83333 522 1.5Z" fill="#E7DD4C"/>
<path d="M476.5 131H435.5V6.5H522.5C532.333 8.5 552.7 18.3 555.5 41.5C559 70.5 523 80 520.5 83C518 86 523.033 91.3014 534 94.5C545.901 97.9713 575.672 97.344 591.607 97.0083L592 97V131H520.5C515.5 131 485 93.5 482.5 90C480.5 87.2 477.667 87.8333 476.5 88.5V131Z" fill="black" stroke="black"/>
<path d="M477.5 33V62H517C519.5 59 524.4 51.6 524 46C523.6 40.4 517.5 35 514.5 33H477.5Z" fill="#E7DD4C" stroke="black"/>
<path d="M482.5 38V56H514.5C515.5 56 517.6 54.6 518 49C518.4 43.4 514.167 39.3333 512 38H482.5Z" fill="black" stroke="black"/>
<path d="M321.5 135H269.5L312.5 2H378.5L422.5 135H369.5L361.5 116H327L321.5 135Z" fill="#E7DD4C"/>
<path d="M316 7L275.5 130.5H317.5L324.5 110H366.5L375 130.5H416L375 7H316Z" fill="black" stroke="black"/>
<path d="M345 34L328 84.5H345.5H363L345 34Z" fill="#E7DD4C"/>
<path d="M344.5 47.5L335 81H356L344.5 47.5Z" fill="black" stroke="black"/>
<path d="M136.5 136H1V93H90.5C107 93 102.5 91.5 102.5 88.5C102.5 86.1 93.1667 77.1667 88.5 73C84.6667 69.1667 72 56.5 71 37C69.9665 16.8473 82 4.83333 90.5 1H293V45.5H252.5V134.5H205V45.5H141.5C129.9 45.5 130.5 47 130.5 48.5L144.5 61.5C148.667 66 161.127 74.4734 165 95.5C168.5 114.5 156 133 136.5 136Z" fill="#E7DD4C" stroke="#C5BD41"/>
<path d="M102 97.5H4V129.5C46 130.167 129.9 133.1 141.5 129.5C156 125 158 114.5 159 99.5C160 84.5 140.5 64.5 130 55C121.6 47.4 126.5 41.8333 130 40H211V129.5H248.5V38H287V7H106C83.5 7 83.0977 11.3372 80 16.5C76.9023 21.6628 75.5 28 76 38C76.5 48 86.5 63 102 78.5C114.4 90.9 107.167 96.3333 102 97.5Z" fill="black" stroke="black"/>
<path d="M386 330.5H334V192H427.5C447 192 459 207.5 461.5 211C464 214.5 470 230 466 251C462 272 433.5 276 434.5 277C435.3 277.8 438.167 283.333 439.5 286H508.5C515.3 286 513.333 282 511.5 280C506.5 275.333 495.6 265 492 261C487.5 256 477.5 246.5 477.5 222C477.5 196.756 500.5 192 501.5 192H603V234.5H546.5C540.1 234.5 540.167 238.833 541 241C550.5 251 575 268 575 294.5C575 320.696 557.333 329.333 546.5 330.5H425.5L386 289.5V330.5Z" fill="#E7DD4C"/>
<path d="M426 195.5H339.5V326H383.5V280.5L426 326H516C540.5 326 545 326 556 321.5C567 317 569.5 306.5 569 291.5C568.5 276.5 558 265.5 541.5 249.5C528.3 236.7 536 231.833 541.5 231H597V195.5H524.5C498.746 195.5 495.068 198.444 490.141 202.387L490 202.5C486.155 205.576 482.5 215.703 482.5 231C482.5 247 508 270.5 516 277.5C522.4 283.1 516 289.167 512 291.5H438.5L426 273C437.167 271.167 459.9 260.8 461.5 234C463.1 207.2 438.5 197.167 426 195.5Z" fill="black"/>
<path d="M421.5 225H383V254.5H421.5C423.333 254.5 427.4 252.1 429 242.5C430.6 232.9 424.667 226.833 421.5 225Z" fill="#E7DD4C"/>
<path d="M386.5 248.5V229.5H418.5C420.167 230.167 423.5 233.2 423.5 240C423.5 246.8 420.167 248.5 418.5 248.5H386.5Z" fill="black"/>
<path d="M285.5 191.5H216.5L172 330.5H223.5L232.5 307.5H267.5L277 330.5H331L285.5 191.5Z" fill="#E7DD4C"/>
<path d="M221 326H179L221 196H281.5L325 326H279.5L270 301.5H229L221 326Z" fill="black"/>
<path d="M52 191H7H4L52 331.5H88.5L101 281.5L114.5 331.5H152.5L197 191H149.5L138.5 226.5L128 191H76L67.5 226.5L52 191Z" fill="#E7DD4C"/>
<path d="M50.5 195.5H12L55 326H85C89 306.667 97.3 268 98.5 268H103L119 326H149L190 195.5H153.5L141.5 236.5H135L122.5 195.5H81.5L73 236.5H66.5L50.5 195.5Z" fill="black"/>
<path d="M251 220.5L228.5 278H272.5L251 220.5Z" fill="#E7DD4C"/>
<path d="M250.5 231L237 272H264.5L250.5 231Z" fill="black" stroke="black"/>
</svg>
